/* XPM */
static char * ___ = {
"16 16 46 1",
" 	c None",
".	c #2D3C82",
"+	c #344387",
"@	c #3B498B",
"#	c #2F3E84",
"$	c #3D4B8C",
"%	c #334286",
"&	c #2D3C83",
"*	c #314085",
"=	c #AEB4CF",
"-	c #F1F2F6",
";	c #F7F8FA",
">	c #EDEEF4",
",	c #C2C7DB",
"'	c #2E3D83",
")	c #495693",
"!	c #E9EBF2",
"~	c #FEFEFE",
"{	c #C0C4D9",
"]	c #404E8E",
"^	c #6E78A9",
"/	c #324186",
"(	c #BDC2D8",
"_	c #D6D9E7",
":	c #C2C6DB",
"<	c #324185",
"[	c #3C4A8B",
"}	c #EFF0F5",
"|	c #5E6A9F",
"1	c #F5F5F9",
"2	c #384689",
"3	c #303E84",
"4	c #ABB1CD",
"5	c #303F84",
"6	c #F5F6F9",
"7	c #3B498A",
"8	c #C1C5DA",
"9	c #324085",
"0	c #EEEFF5",
"a	c #9FA6C6",
"b	c #BEC2D8",
"c	c #CACEDF",
"d	c #A0A7C6",
"e	c #CFD3E3",
"f	c #2F3E83",
"g	c #374688",
"     ......     ",
"   ..+@#.$%.    ",
"  .&*=-;;>,''.  ",
"  ')!~~{{~~~.'  ",
" .]-~~~^^~~~~'. ",
"./(~~~_''_~~~:<.",
".[}~~~|..|~~~12.",
".3~~~4....4~~~'.",
".5~~6$....$6~~3.",
".7-~8......8~>$.",
".%=~{......{~:<.",
" .9!09....90~'. ",
" .&)-a....a~.'  ",
"  .']bcdde,.'.  ",
"    .%[5fg%.    ",
"     ......     "};
