/* XPM */
static char * ___ [] = {
"32 32 97 2",
"  	c None",
". 	c #2D3C82",
"+ 	c #2E3D83",
"@ 	c #3A488A",
"# 	c #3B498B",
"$ 	c #354387",
"% 	c #374688",
"& 	c #3E4C8C",
"* 	c #3D4C8C",
"= 	c #3C4A8B",
"- 	c #4C5995",
"; 	c #A8AECB",
"> 	c #DEE1EB",
", 	c #F0F1F6",
"' 	c #FAFBFC",
") 	c #F8F8FB",
"! 	c #ECEDF3",
"~ 	c #D1D4E4",
"{ 	c #9CA3C4",
"] 	c #5B679E",
"^ 	c #39488A",
"/ 	c #6671A4",
"( 	c #E3E5EE",
"_ 	c #FEFEFE",
": 	c #FBFBFD",
"< 	c #EBECF3",
"[ 	c #646FA3",
"} 	c #3D4B8C",
"| 	c #344387",
"1 	c #D5D7E6",
"2 	c #D0D4E3",
"3 	c #C5C9DD",
"4 	c #2F3E83",
"5 	c #939ABF",
"6 	c #F5F5F9",
"7 	c #384689",
"8 	c #4A5794",
"9 	c #3F4D8D",
"0 	c #BDC1D8",
"a 	c #C7CBDD",
"b 	c #A1A8C8",
"c 	c #445290",
"d 	c #5D699F",
"e 	c #5E699F",
"f 	c #E7E8F0",
"g 	c #CBCEE0",
"h 	c #F4F5F8",
"i 	c #354487",
"j 	c #57639C",
"k 	c #59659C",
"l 	c #56629B",
"m 	c #98A0C2",
"n 	c #ACB2CE",
"o 	c #ABB1CD",
"p 	c #3E4C8D",
"q 	c #CFD2E2",
"r 	c #ECEEF4",
"s 	c #DDDFEA",
"t 	c #3B498A",
"u 	c #394789",
"v 	c #F3F4F8",
"w 	c #7680AD",
"x 	c #F2F3F7",
"y 	c #364487",
"z 	c #FAFAFC",
"A 	c #C5C9DC",
"B 	c #F9F9FB",
"C 	c #364588",
"D 	c #505D97",
"E 	c #F1F2F6",
"F 	c #B4BAD3",
"G 	c #DFE1EC",
"H 	c #6A74A6",
"I 	c #A9B0CC",
"J 	c #455391",
"K 	c #4D5A95",
"L 	c #495693",
"M 	c #E4E6EF",
"N 	c #5F6AA0",
"O 	c #8A92B9",
"P 	c #D0D3E3",
"Q 	c #6A75A7",
"R 	c #EEEFF5",
"S 	c #515D97",
"T 	c #374588",
"U 	c #8C94BB",
"V 	c #A3A9C9",
"W 	c #303E84",
"X 	c #D6D9E7",
"Y 	c #BFC4D9",
"Z 	c #5F6BA0",
"` 	c #435190",
" .	c #57639B",
"..	c #989FC2",
"+.	c #DEE0EB",
"@.	c #364488",
"#.	c #3A498A",
"                        . . . . . . . .                         ",
"                    . . . . . . . . . . . . .                   ",
"                . . . . + @ # $ % & * + . . . .                 ",
"            . . . . = - ; > , ' ) ! ~ { ] ^ . . . .             ",
"          . . . @ / ( _ _ _ _ : : _ _ _ _ < [ } . . .           ",
"        . . . | 1 _ _ _ _ _ _ 2 2 _ _ _ _ _ _ 3 @ . . .         ",
"      . . . 4 _ _ _ _ _ _ _ _ 5 5 _ _ _ _ _ _ _ 6 % . . .       ",
"      . . 7 _ _ _ _ _ _ _ _ _ 8 8 _ _ _ _ _ _ _ _ _ 4 . .       ",
"    . . 9 0 _ _ _ _ _ _ _ _ a . . a _ _ _ _ _ _ _ _ b c . .     ",
"  . . . d _ _ _ _ _ _ _ _ _ / . . / _ _ _ _ _ _ _ _ _ e . .     ",
"  . . = f _ _ _ _ _ _ _ _ g . . . . g _ _ _ _ _ _ _ _ h i . .   ",
"  . . j _ _ _ _ _ _ _ _ _ k . . . . k _ _ _ _ _ _ _ _ _ l . .   ",
". . 4 m _ _ _ _ _ _ _ _ n . . . . . . n _ _ _ _ _ _ _ _ o 4 . . ",
". . p q _ _ _ _ _ _ _ r # . . . . . . # r _ _ _ _ _ _ _ s t . . ",
". . u v _ _ _ _ _ _ _ w . . . . . . . . w _ _ _ _ _ _ _ x @ . . ",
". . y z _ _ _ _ _ _ A . . . . . . . . . . A _ _ _ _ _ _ B C . . ",
". . | ' _ _ _ _ _ : D . . . . . . . . . . D : _ _ _ _ _ ' $ . . ",
". . # E _ _ _ _ _ F . . . . . . . . . . . . F _ _ _ _ _ ! & . . ",
". . @ G _ _ _ _ _ H . . . . . . . . . . . . H _ _ _ _ _ ~ & . . ",
". . 4 I _ _ _ _ _ J . . . . . . . . . . . . J _ _ _ _ _ { 4 . . ",
"  . . K _ _ _ _ _ L . . . . . . . . . . . . L _ _ _ _ _ ] . .   ",
"  . . } M _ _ _ _ N . . . . . . . . . . . . N _ _ _ _ < @ . .   ",
"    . . / _ _ _ _ O . . . . . . . . . . . . O _ _ _ _ [ . . .   ",
"    . . @ 1 _ _ _ P . . . . . . . . . . . . P _ _ _ 3 & . .     ",
"      . . $ _ _ _ _ Q . . . . . . . . . . Q _ _ _ 6 ^ . .       ",
"      . . . 4 _ _ _ R S . . . . . . . . S R _ _ _ T . . .       ",
"        . . . 7 0 _ _ h U @ . . . . @ U h _ _ V W . . .         ",
"          . . . 9 d f _ _ ' X Y Y X ' _ _ 6 Z ` . . .           ",
"            . . . . #  ...q v ' B x +.o l $ . . . .             ",
"                . . . . + p u | @.@ #.+ . . . .                 ",
"                  . . . . . . . . . . . . .                     ",
"                        . . . . . . . .                         "};
