/* XPM */
static char * ___ [] = {
"64 64 134 2",
"  	c None",
". 	c #2D3C82",
"+ 	c #324185",
"@ 	c #3C4A8B",
"# 	c #3D4B8C",
"$ 	c #3E4B8C",
"% 	c #3E4C8D",
"& 	c #3B4A8B",
"* 	c #334286",
"= 	c #2F3E83",
"- 	c #2E3D83",
"; 	c #5B679E",
"> 	c #929ABE",
", 	c #BDC2D8",
"' 	c #CDD1E1",
") 	c #E1E3ED",
"! 	c #E7E8F0",
"~ 	c #E6E8F0",
"{ 	c #DEE1EB",
"] 	c #D0D4E3",
"^ 	c #B8BDD5",
"/ 	c #8B93BA",
"( 	c #535F99",
"_ 	c #324085",
": 	c #414F8E",
"< 	c #394789",
"[ 	c #42508F",
"} 	c #9AA2C4",
"| 	c #FEFEFE",
"1 	c #D5D8E6",
"2 	c #A4ABC9",
"3 	c #404D8D",
"4 	c #7881AF",
"5 	c #E4E6EF",
"6 	c #D4D7E5",
"7 	c #54619A",
"8 	c #445190",
"9 	c #737EAC",
"0 	c #DCDEEA",
"a 	c #D0D3E3",
"b 	c #39478A",
"c 	c #2D3D83",
"d 	c #344387",
"e 	c #AFB5CF",
"f 	c #E3E5EE",
"g 	c #465491",
"h 	c #354487",
"i 	c #6E79A9",
"j 	c #ABB1CD",
"k 	c #E8EAF1",
"l 	c #505D97",
"m 	c #364487",
"n 	c #374588",
"o 	c #A9AFCC",
"p 	c #737DAC",
"q 	c #A1A8C7",
"r 	c #495693",
"s 	c #445290",
"t 	c #F8F8FB",
"u 	c #384689",
"v 	c #485593",
"w 	c #364588",
"x 	c #757FAD",
"y 	c #A9AFCB",
"z 	c #515D97",
"A 	c #EEEFF5",
"B 	c #465391",
"C 	c #E9EBF2",
"D 	c #9FA6C6",
"E 	c #CED2E2",
"F 	c #FBFBFD",
"G 	c #475492",
"H 	c #B4BAD3",
"I 	c #747EAD",
"J 	c #FDFDFE",
"K 	c #404E8D",
"L 	c #55619A",
"M 	c #B3B8D2",
"N 	c #F9F9FB",
"O 	c #404E8E",
"P 	c #9EA5C5",
"Q 	c #A5ACCA",
"R 	c #ECEDF3",
"S 	c #414E8E",
"T 	c #7882AF",
"U 	c #C9CDDF",
"V 	c #546099",
"W 	c #4C5995",
"X 	c #8B94BA",
"Y 	c #9199BE",
"Z 	c #B9BED5",
"` 	c #D9DCE9",
" .	c #314084",
"..	c #334186",
"+.	c #D1D4E4",
"@.	c #5B679D",
"#.	c #3B498B",
"$.	c #3E4C8C",
"%.	c #DFE1EC",
"&.	c #A6ACCA",
"*.	c #3B498A",
"=.	c #838CB5",
"-.	c #DADDE9",
";.	c #303F84",
">.	c #3C4A8C",
",.	c #CED1E2",
"'.	c #BEC3D8",
").	c #939BBF",
"!.	c #9DA4C4",
"~.	c #5C689E",
"{.	c #636EA2",
"].	c #9CA3C4",
"^.	c #43508F",
"/.	c #4B5894",
"(.	c #6A75A7",
"_.	c #DDDFEA",
":.	c #949CC0",
"<.	c #CACEDF",
"[.	c #3F4D8D",
"}.	c #B0B6D0",
"|.	c #3A488A",
"1.	c #8F97BD",
"2.	c #6F79A9",
"3.	c #A2A8C7",
"4.	c #A0A7C6",
"5.	c #6C77A8",
"6.	c #F5F6F9",
"7.	c #A2A8C8",
"8.	c #8790B8",
"9.	c #AAB0CD",
"0.	c #6570A4",
"a.	c #354387",
"b.	c #A4AAC9",
"c.	c #7580AD",
"                                                      . . . . . . . . . .                                                       ",
"                                            . . . . . . . . . . . . . . . . . . . .                                             ",
"                                        . . . . . . . . . . . . . . . . . . . . . . . .                                         ",
"                                  . . . . . . . . . . . . . . . . . . . . . . . . . . . . .                                     ",
"                                . . . . . . . . . . . . + @ # # $ % & * . . . . . . . . . . . .                                 ",
"                            . . . . . . . . . = # - ; > , ' ) ! ~ { ] ^ / ( _ : = . . . . . . . . .                             ",
"                          . . . . . . . . < [ } ) | | | | | | | | | | | | | | 1 2 3 # . . . . . . . .                           ",
"                      . . . . . . . . 3 4 5 | | | | | | | | | | | | | | | | | | | | 6 7 8 . . . . . . .                         ",
"                      . . . . . . % 9 0 | | | | | | | | | | | | | | | | | | | | | | | | a # b . . . . . .                       ",
"                    . . . . . c d e | | | | | | | | | | | | | f f | | | | | | | | | | | | | ' g - . . . . .                     ",
"                  . . . . . h i | | | | | | | | | | | | | | | j j | | | | | | | | | | | | | | k l m . . . . .                   ",
"                . . . . . n o | | | | | | | | | | | | | | | | p p | | | | | | | | | | | | | | | | q r . . . . . .               ",
"              . . . . . s a | | | | | | | | | | | | | | | | t u u t | | | | | | | | | | | | | | | | . s . . . . .               ",
"            . . . . . v . | | | | | | | | | | | | | | | | | , . . , | | | | | | | | | | | | | | | | | a w . . . . .             ",
"          . . . . . h q | | | | | | | | | | | | | | | | | | x . . x | | | | | | | | | | | | | | | | | | y d . . . . .           ",
"          . . . . - z | | | | | | | | | | | | | | | | | | A + . . + A | | | | | | | | | | | | | | | | | | i c . . . .           ",
"        . . . . . B C | | | | | | | | | | | | | | | | | | D . . . . D | | | | | | | | | | | | | | | | | | | d . . . . .         ",
"        . . . . b E | | | | | | | | | | | | | | | | | | F G . . . . G F | | | | | | | | | | | | | | | | | | e % . . . .         ",
"      . . . . . $ | | | | | | | | | | | | | | | | | | | H . . . . . . H | | | | | | | | | | | | | | | | | | | I . . . . .       ",
"      . . . . s ] | | | | | | | | | | | | | | | | | | J z . . . . . . z J | | | | | | | | | | | | | | | | | | 0 K . . . .       ",
"    . . . . . L | | | | | | | | | | | | | | | | | | | M . . . . . . . . M | | | | | | | | | | | | | | | | | | | 4 . . . . .     ",
"    . . . . # 6 | | | | | | | | | | | | | | | | | | N r . . . . . . . . r N | | | | | | | | | | | | | | | | | | 5 < . . . .     ",
"  . . . . . O | | | | | | | | | | | | | | | | | | | P . . . . . . . . . . P | | | | | | | | | | | | | | | | | | | [ . . . .     ",
"  . . . . - Q | | | | | | | | | | | | | | | | | | R < . . . . . . . . . . < R | | | | | | | | | | | | | | | | | | } - . . . .   ",
"  . . . . S 1 | | | | | | | | | | | | | | | | | | T . . . . . . . . . . . . T | | | | | | | | | | | | | | | | | | ) # . . . .   ",
"  . . . . + | | | | | | | | | | | | | | | | | | U . . . . . . . . . . . . . . U | | | | | | | | | | | | | | | | | | - . . . .   ",
"  . . . . V | | | | | | | | | | | | | | | | | t W . . . . . . . . . . . . . . W t | | | | | | | | | | | | | | | | | ; . . . .   ",
". . . . . X | | | | | | | | | | | | | | | | | Y . . . . . . . . . . . . . . . . Y | | | | | | | | | | | | | | | | | > . . . . . ",
". . . . * Z | | | | | | | | | | | | | | | | `  .. . . . . . . . . . . . . . . .  .` | | | | | | | | | | | | | | | | , ... . . . ",
". . . . @ +.| | | | | | | | | | | | | | | J @.. . . . . . . . . . . . . . . . . . @.J | | | | | | | | | | | | | | | 6 #.. . . . ",
". . . . $.%.| | | | | | | | | | | | | | | &.. . . . . . . . . . . . . . . . . . . . &.| | | | | | | | | | | | | | | ) # . . . . ",
". . . . # ! | | | | | | | | | | | | | | A *.. . . . . . . . . . . . . . . . . . . . *.A | | | | | | | | | | | | | | 5 $.. . . . ",
". . . . # ! | | | | | | | | | | | | | | =.. . . . . . . . . . . . . . . . . . . . . . =.| | | | | | | | | | | | | | ! # . . . . ",
". . . . # ) | | | | | | | | | | | | | -.;.. . . . . . . . . . . . . . . . . . . . . . ;.-.| | | | | | | | | | | | | { % . . . . ",
". . . . >.,.| | | | | | | | | | | | | p . . . . . . . . . . . . . . . . . . . . . . . . p | | | | | | | | | | | | | ] @ . . . . ",
". . . . ..'.| | | | | | | | | | | | ~ = . . . . . . . . . . . . . . . . . . . . . . . . = ~ | | | | | | | | | | | | ^ * . . . . ",
". . . . . ).| | | | | | | | | | | | !.. . . . . . . . . . . . . . . . . . . . . . . . . . !.| | | | | | | | | | | | / . . . . . ",
"  . . . . ~.| | | | | | | | | | | | {.. . . . . . . . . . . . . . . . . . . . . . . . . . {.| | | | | | | | | | | | ( . . . .   ",
"  . . . . = | | | | | | | | | | | | #.. . . . . . . . . . . . . . . . . . . . . . . . . . #.| | | | | | | | | | | | _ . . . .   ",
"  . . . . # ) | | | | | | | | | | F . . . . . . . . . . . . . . . . . . . . . . . . . . . . F | | | | | | | | | | 1 : . . . .   ",
"  . . . . - ].| | | | | | | | | | J . . . . . . . . . . . . . . . . . . . . . . . . . . . . J | | | | | | | | | | 2 - . . . .   ",
"  . . . . . ^.| | | | | | | | | | | n . . . . . . . . . . . . . . . . . . . . . . . . . . n | | | | | | | | | | | 3 . . . . .   ",
"    . . . . < 5 | | | | | | | | | | /.. . . . . . . . . . . . . . . . . . . . . . . . . . /.| | | | | | | | | | 6 # . . . .     ",
"    . . . . . T | | | | | | | | | | (.. . . . . . . . . . . . . . . . . . . . . . . . . . (.| | | | | | | | | | 7 . . . . .     ",
"      . . . . K _.| | | | | | | | | :.. . . . . . . . . . . . . . . . . . . . . . . . . . :.| | | | | | | | | a s . . . .       ",
"      . . . . . x | | | | | | | | | <.. . . . . . . . . . . . . . . . . . . . . . . . . . <.| | | | | | | | | # . . . . .       ",
"      . . . . . [.}.| | | | | | | | F [.. . . . . . . . . . . . . . . . . . . . . . . . [.F | | | | | | | | ' |.. . . .         ",
"        . . . . . h | | | | | | | | | 1.. . . . . . . . . . . . . . . . . . . . . . . . 1.| | | | | | | | k g . . . . .         ",
"          . . . . c 2.| | | | | | | | R n . . . . . . . . . . . . . . . . . . . . . . n R | | | | | | | | l - . . . .           ",
"          . . . . . d o | | | | | | | | 3.. . . . . . . . . . . . . . . . . . . . . . 3.| | | | | | | | 4.h . . . . .           ",
"            . . . . . w a | | | | | | | J 5.. . . . . . . . . . . . . . . . . . . . 5.J | | | | | | | . v . . . . .             ",
"              . . . . . s . | | | | | | | 6.{.. . . . . . . . . . . . . . . . . . {.6.| | | | | | | +.s . . . . .               ",
"              . . . . . . r 7.| | | | | | | N 8.. . . . . . . . . . . . . . . . 8.N | | | | | | | 9.w . . . . .                 ",
"                  . . . . . m z C | | | | | | | +.0.. . . . . . . . . . . . 0.+.| | | | | | | | 2.a.. . . . .                   ",
"                    . . . . . - B E | | | | | | | | f b.p z *._ _ *.z p b.f | | | | | | | | }.h c . . . . .                     ",
"                      . . . . . . b $.] | | | | | | | | | | | | | | | | | | | | | | | | _.c.% . . . . . .                       ",
"                        . . . . . . . s L 6 | | | | | | | | | | | | | | | | | | | | 5 T K . . . . . . . .                       ",
"                          . . . . . . . . # O Q 1 | | | | | | | | | | | | | | ) ].^.< . . . . . . . .                           ",
"                            . . . . . . . . . = : + V X Z +.%.! ~ ) 6 '.).~.= # = . . . . . . . . .                             ",
"                                . . . . . . . . . . . . * #.$.# $ # *.+ . . . . . . . . . . . .                                 ",
"                                    . . . . . . . . . . . . . . . . . . . . . . . . . . . .                                     ",
"                                        . . . . . . . . . . . . . . . . . . . . . . . .                                         ",
"                                            . . . . . . . . . . . . . . . . . . .                                               ",
"                                                      . . . . . . . . . .                                                       "};
